<svg id="Group_172" data-name="Group 172" xmlns="http://www.w3.org/2000/svg" width="194.38" height="194.38" viewBox="0 0 194.38 194.38">
  <g id="Group_48" data-name="Group 48" transform="translate(0)">
    <g id="Group_47" data-name="Group 47">
      <path id="Path_163" data-name="Path 163" d="M198.5,13.223a2.935,2.935,0,0,0-1.982-1.008L153.407,8.6l-.782-6.1A2.909,2.909,0,0,0,149.368.023L109.374,4.957a2.953,2.953,0,0,0-.487-.085L53.915.265a2.929,2.929,0,0,0-3.155,2.608l-.819,9.415L7.361,17.541a2.9,2.9,0,0,0-2.53,3.2l21.735,169.63a7.736,7.736,0,0,0,.252,2.265,2.946,2.946,0,0,0,2.688,1.748H172.63a2.889,2.889,0,0,0,2.917-2.862V187.79l5.649.473a2.93,2.93,0,0,0,3.155-2.608L199.178,15.311A2.825,2.825,0,0,0,198.5,13.223ZM26.588,144.655,10.984,22.863l15.6-1.925ZM56.325,6.212,81.854,8.351,55.86,11.558ZM147.2,6.06l1.49,11.631H52.91Zm31.584,176.257-3.24-.271V98.4a2.918,2.918,0,0,0-5.834,0v90.253H32.422V23.415H169.713V85.047a2.917,2.917,0,0,0,5.834,0V20.553a2.89,2.89,0,0,0-2.917-2.862H154.572l-.421-3.281,38.966,3.266Z" transform="translate(-4.809 0)" fill="#29648a"/>
    </g>
  </g>
  <g id="Group_50" data-name="Group 50" transform="translate(99.565 32.956)">
    <g id="Group_49" data-name="Group 49">
      <path id="Path_164" data-name="Path 164" d="M314.836,86.806H299.279a2.93,2.93,0,0,0-2.427,1.274l-6.6,9.717a43.69,43.69,0,0,0-25.2-7.939,2.89,2.89,0,0,0-2.917,2.862v39.688a2.89,2.89,0,0,0,2.917,2.862H305.5a2.889,2.889,0,0,0,2.917-2.862,42.069,42.069,0,0,0-13.643-30.954l6.064-8.925h14a2.863,2.863,0,1,0,0-5.724Zm-12.363,42.741h-34.5V95.693a37.75,37.75,0,0,1,19.039,6.874l-2.6,3.831a2.851,2.851,0,0,0,.548,3.777,2.981,2.981,0,0,0,4.306-.6l2.227-3.279A36.439,36.439,0,0,1,302.473,129.547Z" transform="translate(-262.137 -86.806)" fill="#29648a"/>
    </g>
  </g>
  <g id="Group_52" data-name="Group 52" transform="translate(46.67 48.22)">
    <g id="Group_51" data-name="Group 51">
      <path id="Path_165" data-name="Path 165" d="M231.023,206.389H204.638l-4.649-7.3a41.993,41.993,0,0,0,12.172-29.527,2.889,2.889,0,0,0-2.917-2.862H171.712V129.875a2.89,2.89,0,0,0-2.917-2.862c-23.911,0-43.365,19.088-43.365,42.551s19.454,42.551,43.365,42.551a43.678,43.678,0,0,0,26.8-9.12l4.953,7.775a2.93,2.93,0,0,0,2.474,1.345h28a2.863,2.863,0,1,0,0-5.725Zm-41.086-23.078a2.949,2.949,0,0,0-4.02-.91,2.831,2.831,0,0,0-.928,3.944l7.492,11.762A37.8,37.8,0,0,1,168.8,206.39c-20.695,0-37.531-16.52-37.531-36.826,0-19.343,15.277-35.251,34.614-36.716v36.716a2.89,2.89,0,0,0,2.917,2.862h37.419a36.345,36.345,0,0,1-9.426,21.641Z" transform="translate(-125.43 -127.013)" fill="#29648a"/>
    </g>
  </g>
  <g id="Group_54" data-name="Group 54" transform="translate(37.336 142.861)">
    <g id="Group_53" data-name="Group 53">
      <path id="Path_166" data-name="Path 166" d="M129.114,376.3H104.223a2.863,2.863,0,1,0,0,5.724h24.891a2.863,2.863,0,1,0,0-5.724Z" transform="translate(-101.306 -376.3)" fill="#29648a"/>
    </g>
  </g>
  <g id="Group_56" data-name="Group 56" transform="translate(74.673 142.861)">
    <g id="Group_55" data-name="Group 55" transform="translate(0)">
      <path id="Path_167" data-name="Path 167" d="M225.613,376.3H200.722a2.863,2.863,0,1,0,0,5.724h24.891a2.863,2.863,0,1,0,0-5.724Z" transform="translate(-197.805 -376.3)" fill="#29648a"/>
    </g>
  </g>
  <g id="Group_58" data-name="Group 58" transform="translate(37.336 158.126)">
    <g id="Group_57" data-name="Group 57">
      <path id="Path_168" data-name="Path 168" d="M144.671,416.508H104.223a2.863,2.863,0,1,0,0,5.724h40.448a2.863,2.863,0,1,0,0-5.724Z" transform="translate(-101.306 -416.508)" fill="#29648a"/>
    </g>
  </g>
  <g id="Group_60" data-name="Group 60" transform="translate(90.23 158.126)">
    <g id="Group_59" data-name="Group 59">
      <path id="Path_169" data-name="Path 169" d="M250.263,416.508h-9.334a2.863,2.863,0,1,0,0,5.724h9.334a2.863,2.863,0,1,0,0-5.724Z" transform="translate(-238.012 -416.508)" fill="#29648a"/>
    </g>
  </g>
  <g id="Group_62" data-name="Group 62" transform="translate(37.336 173.391)">
    <g id="Group_61" data-name="Group 61">
      <path id="Path_170" data-name="Path 170" d="M116.669,456.715H104.223a2.863,2.863,0,1,0,0,5.724h12.446a2.863,2.863,0,1,0,0-5.724Z" transform="translate(-101.306 -456.715)" fill="#29648a"/>
    </g>
  </g>
  <g id="Group_64" data-name="Group 64" transform="translate(62.228 173.391)">
    <g id="Group_63" data-name="Group 63">
      <path id="Path_171" data-name="Path 171" d="M205.893,456.715H168.556a2.863,2.863,0,1,0,0,5.724h37.337a2.863,2.863,0,1,0,0-5.724Z" transform="translate(-165.639 -456.715)" fill="#29648a"/>
    </g>
  </g>
</svg>
