<svg id="clock" xmlns="http://www.w3.org/2000/svg" width="194.38" height="194.38" viewBox="0 0 194.38 194.38">
  <path id="Path_142" data-name="Path 142" d="M8.2,260.4a93.292,93.292,0,0,1-1.557-12.7A3.322,3.322,0,1,0,0,248.057a99.99,99.99,0,0,0,1.659,13.6,3.317,3.317,0,0,0,3.251,2.687,3.463,3.463,0,0,0,.633-.06A3.321,3.321,0,0,0,8.2,260.4Zm0,0" transform="translate(0 -145.784)" fill="#29648a"/>
  <path id="Path_143" data-name="Path 143" d="M46.956,365.5a3.319,3.319,0,0,0-5.457,3.779,99.469,99.469,0,0,0,8.566,10.7,3.318,3.318,0,1,0,4.887-4.488,93.174,93.174,0,0,1-8-9.993Zm0,0" transform="translate(-23.945 -216.971)" fill="#29648a"/>
  <path id="Path_144" data-name="Path 144" d="M3.517,200.685a1.956,1.956,0,0,0,.275,0,3.317,3.317,0,0,0,3.317-3.045A91.929,91.929,0,0,1,9.04,184.987a3.323,3.323,0,0,0-6.486-1.453A99.491,99.491,0,0,0,.468,197.107a3.315,3.315,0,0,0,3.048,3.578Zm0,0" transform="translate(-0.268 -107.86)" fill="#29648a"/>
  <path id="Path_145" data-name="Path 145" d="M99.924,419.23a92.775,92.775,0,0,1-10.411-7.454,3.318,3.318,0,1,0-4.226,5.115,100.674,100.674,0,0,0,11.149,7.986,3.318,3.318,0,1,0,3.487-5.64Zm0,0" transform="translate(-50.071 -245.245)" fill="#29648a"/>
  <path id="Path_146" data-name="Path 146" d="M16.6,143.964a3.318,3.318,0,0,0,4.273-1.937,90.538,90.538,0,0,1,3.824-8.771,3.317,3.317,0,0,0-5.935-2.966,99.76,99.76,0,0,0-4.1,9.4,3.317,3.317,0,0,0,1.941,4.273Zm0,0" transform="translate(-8.454 -76.557)" fill="#29648a"/>
  <path id="Path_147" data-name="Path 147" d="M18.566,309.416a3.319,3.319,0,1,0-6.28,2.149A100.349,100.349,0,0,0,17.623,324.2a3.318,3.318,0,0,0,5.919-3,92.716,92.716,0,0,1-4.976-11.789Zm0,0" transform="translate(-7.086 -183.092)" fill="#29648a"/>
  <path id="Path_148" data-name="Path 148" d="M155.251,449.177a92.361,92.361,0,0,1-12.048-4.314,3.318,3.318,0,0,0-2.655,6.078,100.113,100.113,0,0,0,12.918,4.644,3.406,3.406,0,0,0,.9.126,3.317,3.317,0,0,0,.9-6.512Zm0,0" transform="translate(-82.578 -264.917)" fill="#29648a"/>
  <path id="Path_149" data-name="Path 149" d="M39.579,282.952a3.318,3.318,0,0,0,6.137-2.525,74.089,74.089,0,0,1-3.831-12.1,3.32,3.32,0,0,0-6.482,1.437,81.252,81.252,0,0,0,4.176,13.187Zm0,0" transform="translate(-20.676 -158.397)" fill="#29648a"/>
  <path id="Path_150" data-name="Path 150" d="M43.754,160.144a3.319,3.319,0,0,0,4.16-2.169,79.7,79.7,0,0,1,4.754-11.8,3.319,3.319,0,1,0-5.929-2.985,86.443,86.443,0,0,0-5.154,12.785,3.317,3.317,0,0,0,2.169,4.169Zm0,0" transform="translate(-24.25 -84.261)" fill="#29648a"/>
  <path id="Path_151" data-name="Path 151" d="M38.318,218.447v-.637a85.594,85.594,0,0,1,.995-11.917,3.317,3.317,0,1,0-6.557-.995,92.119,92.119,0,0,0-1.072,12.821v.883A3.25,3.25,0,0,0,35,221.844a3.383,3.383,0,0,0,3.317-3.4Zm0,0" transform="translate(-18.545 -120.426)" fill="#29648a"/>
  <path id="Path_152" data-name="Path 152" d="M114.634,383.9a92.065,92.065,0,0,1-9.832-8.187,3.318,3.318,0,0,0-4.589,4.79,97.954,97.954,0,0,0,10.547,8.784,3.318,3.318,0,0,0,3.875-5.388Zm0,0" transform="translate(-59.097 -224.07)" fill="#29648a"/>
  <path id="Path_153" data-name="Path 153" d="M167.5,417.062a75.863,75.863,0,0,1-11.74-4.822,3.317,3.317,0,1,0-3.018,5.907,82.8,82.8,0,0,0,12.771,5.245,3.318,3.318,0,1,0,1.991-6.33Zm0,0" transform="translate(-89.891 -245.747)" fill="#29648a"/>
  <path id="Path_154" data-name="Path 154" d="M72.169,341.421a3.318,3.318,0,0,0,.528-4.66,94.342,94.342,0,0,1-7.3-10.534,3.317,3.317,0,1,0-5.692,3.393,101.347,101.347,0,0,0,7.806,11.28,3.315,3.315,0,0,0,4.663.523Zm0,0" transform="translate(-34.625 -193.384)" fill="#29648a"/>
  <path id="Path_155" data-name="Path 155" d="M125.324,0A96.556,96.556,0,0,0,72.947,15.342l-13.18-14.3a3.234,3.234,0,0,0-5.584,1.768l-6.47,48.594a3.238,3.238,0,0,0,3.66,3.635l45.29-6.479a3.241,3.241,0,0,0,1.914-5.4L86.394,29.944a77.714,77.714,0,1,1,38.93,145h-.039a63,63,0,0,1-7.644-.467,3.24,3.24,0,0,0-.776,6.433,69.84,69.84,0,0,0,8.41.513h.049A84.207,84.207,0,1,0,79.6,26.539a3.242,3.242,0,0,0-.61,4.912L89.662,43.023l-34.97,5.008L59.687,10.51,70.039,21.765a3.231,3.231,0,0,0,4.2.479A90.659,90.659,0,1,1,125.324,187.9a91.588,91.588,0,0,1-12.452-.848,3.24,3.24,0,0,0-.883,6.418A97.179,97.179,0,1,0,125.325,0Zm0,0" transform="translate(-27.912 0)" fill="#29648a"/>
  <path id="Path_156" data-name="Path 156" d="M235,88a3.318,3.318,0,0,0-3.317,3.317V151.03a3.318,3.318,0,0,0,.972,2.345l33.174,33.174a3.317,3.317,0,0,0,4.691-4.691l-32.2-32.2V91.317A3.318,3.318,0,0,0,235,88Zm0,0" transform="translate(-138.297 -53.218)" fill="#29648a"/>
</svg>
