<svg xmlns="http://www.w3.org/2000/svg" width="195.38" height="195.38" viewBox="0 0 195.38 195.38">
  <g id="Component_65_1" data-name="Component 65 – 1" transform="translate(0.5 0.5)">
    <g id="Group_69" data-name="Group 69">
      <g id="Group_68" data-name="Group 68">
        <g id="Group_67" data-name="Group 67">
          <g id="Group_66" data-name="Group 66">
            <g id="domain">
              <path id="Path_172" data-name="Path 172" d="M187.321,80.285h-3.47a100.094,100.094,0,0,0-24.386-51.318C142.831,10.61,120.713.5,97.19.5S51.549,10.61,34.916,28.967A100.148,100.148,0,0,0,10.46,80.706h-3.4C3.166,80.706,0,84.2,0,88.5v28.31c0,4.294,3.166,7.79,7.059,7.79h5.506a98.767,98.767,0,0,0,27.264,46.846,2.669,2.669,0,0,0,4.019-.335,3.377,3.377,0,0,0-.3-4.437,87.479,87.479,0,0,1-9.4-10.479,102.548,102.548,0,0,1,13.294-5.067,105.815,105.815,0,0,0,7.169,11.97,117.944,117.944,0,0,0,19.35,21.816A77.675,77.675,0,0,1,57.244,177.2a2.715,2.715,0,0,0-3.875,1.223,3.322,3.322,0,0,0,1.106,4.278A81.759,81.759,0,0,0,97.19,194.881c23.523,0,45.639-10.109,62.274-28.467A99.155,99.155,0,0,0,181.81,124.74h5.511c3.893,0,7.059-3.494,7.059-7.79V88.076c0-4.294-3.166-7.79-7.059-7.79Zm-9.273,0H158.22c-.237-1.63-.5-3.26-.805-4.888a118.891,118.891,0,0,0-7.9-25.77c.525-.159,1.053-.314,1.575-.478A101.873,101.873,0,0,0,163.878,44.3a94.866,94.866,0,0,1,14.17,35.982Zm-25.542.421H123.054c-.1-1.578-.2-3.155-.331-4.73-.565-7.037-1.4-13.85-2.472-20.366a168.749,168.749,0,0,0,23.632-4.388,111.934,111.934,0,0,1,7.95,25.45c.252,1.342.47,2.687.673,4.033Zm2.927-47.292q2.518,2.779,4.787,5.753a102.958,102.958,0,0,1-10.7,3.934c-.893.281-1.791.552-2.693.817a112.738,112.738,0,0,0-5.95-10.381A104.122,104.122,0,0,0,120.77,10.554a80.832,80.832,0,0,1,34.664,22.86ZM105.98,7.305a96.455,96.455,0,0,1,30.262,29.887q2.607,4.033,4.836,8.291a164.721,164.721,0,0,1-21.941,3.933c-3.3-16.953-8.3-31.557-14.557-42.26q.7.066,1.4.149Zm-8.79-.514.208,0c6.926,10.086,12.463,25.153,16.03,43.17q-9.134.727-18.7.579c-4.327-.069-8.959-.218-13.78-.542,3.567-18.033,9.107-33.115,16.037-43.207l.208,0Zm-7.39.365C83.524,17.884,78.519,32.532,75.219,49.534a149.312,149.312,0,0,1-22.1-3.7q2.309-4.436,5.02-8.64A96.489,96.489,0,0,1,88.4,7.3q.7-.081,1.4-.147ZM74.107,55.743c-1.063,6.474-1.889,13.243-2.45,20.233-.126,1.574-.233,3.152-.329,4.73H41.871c.2-1.345.424-2.691.676-4.033a112.05,112.05,0,0,1,7.795-25.1,151.493,151.493,0,0,0,23.765,4.167Zm-35.16-22.33A80.832,80.832,0,0,1,73.61,10.554,104.046,104.046,0,0,0,53.5,33.537a112.251,112.251,0,0,0-6.11,10.7,102.322,102.322,0,0,1-13.246-5.054q2.278-2.978,4.8-5.774ZM30.5,44.31a106.27,106.27,0,0,0,14.226,5.633A118.965,118.965,0,0,0,36.965,75.4q-.5,2.651-.868,5.309H16.258A94.9,94.9,0,0,1,30.5,44.31ZM7.059,118.3A1.436,1.436,0,0,1,5.7,116.8V88.494A1.436,1.436,0,0,1,7.059,87H89.336a3.161,3.161,0,0,0,0-6.291h-12.3q.133-2.087.3-4.173c.565-7.039,1.4-13.832,2.481-20.305,5.2.368,10.182.532,14.827.606q1.686.027,3.363.028,8.435,0,16.549-.684c1.083,6.487,1.922,13.3,2.488,20.356q.167,2.084.3,4.173h-10.21a3.161,3.161,0,0,0,0,6.291h44.211V118.3H7.059Zm143.6,6.289a106.646,106.646,0,0,1-6.8,19.557,168.853,168.853,0,0,0-23.586-4.386c.819-4.918,1.49-9.988,2.009-15.169H150.66Zm-34.1,0c-.515,5-1.176,9.88-1.978,14.613q-9.734-.815-19.937-.66c-4.654.074-9.645.237-14.854.607-.8-4.717-1.456-9.582-1.969-14.561ZM30.517,151.063a94.807,94.807,0,0,1-12-26.468H37.839a113.933,113.933,0,0,0,6.886,20.843A106.121,106.121,0,0,0,30.517,151.063Zm13.209-26.468H72.087c.515,5.139,1.182,10.168,1.992,15.047A151.488,151.488,0,0,0,50.354,143.8a106.7,106.7,0,0,1-6.628-19.205Zm44.646,63.462c-10.664-6.63-20.768-16.574-29.234-28.786a98.885,98.885,0,0,1-5.942-9.741A149.5,149.5,0,0,1,75.2,145.847c1.127,5.713,2.463,11.183,4,16.323,2.272,7.576,5.839,17.682,10.635,26.049-.489-.047-.979-.1-1.468-.164Zm8.818.534c-.07,0-.138,0-.208,0-4.488-6.561-8.756-16.354-12.364-28.391-1.4-4.676-2.625-9.638-3.672-14.816,4.821-.322,9.451-.473,13.779-.542q9.563-.15,18.7.583c-1.046,5.163-2.268,10.112-3.664,14.775-3.607,12.037-7.876,21.83-12.364,28.391-.07,0-.138,0-.208,0Zm7.344-.36c4.8-8.37,8.369-18.48,10.639-26.059,1.53-5.1,2.858-10.531,3.979-16.2A164.7,164.7,0,0,1,141,149.876a98.735,98.735,0,0,1-5.756,9.394c-8.475,12.224-18.589,22.176-29.264,28.805q-.721.083-1.444.154Zm50.9-26.264a80.756,80.756,0,0,1-35.067,22.989,117.909,117.909,0,0,0,19.4-21.861,105.392,105.392,0,0,0,7-11.649q1.384.408,2.754.835a103.349,103.349,0,0,1,10.69,3.933c-1.514,1.979-3.1,3.9-4.78,5.754Zm8.435-10.893a101.957,101.957,0,0,0-12.778-4.841c-.522-.165-1.05-.319-1.575-.478a113.846,113.846,0,0,0,6.991-21.014h19.344a93.818,93.818,0,0,1-11.983,26.333Zm24.811-34.267a1.436,1.436,0,0,1-1.358,1.5H157.042V87h30.278a1.437,1.437,0,0,1,1.358,1.5Zm0,0" transform="translate(0 -0.501)" fill="#29648a" stroke="#707070" stroke-width="1"/>
              <path id="Path_173" data-name="Path 173" d="M51.644,230.341c0,.308-.463.631-1,.631-.584,0-.986-.323-.986-.631V220.008c0-.37.4-.617.986-.617.539,0,1,.247,1,.617v4.727a2.111,2.111,0,0,1,1.94-1.17,2.961,2.961,0,0,1,2.648,3.126v3.649c0,.416-.507.632-1,.632-.462,0-.986-.216-.986-.632v-3.649a1.424,1.424,0,0,0-1.339-1.386,1.309,1.309,0,0,0-1.263,1.386v3.65Zm0,0" transform="translate(-35.872 -124.626)" fill="#29648a" stroke="#707070" stroke-width="1"/>
              <path id="Path_174" data-name="Path 174" d="M83.935,231.084c0,.6.216.817.863.817h.6a.839.839,0,1,1,0,1.679h-.6c-1.848,0-2.849-.755-2.849-2.5v-7.468c0-.37.523-.616.986-.616.507,0,1,.246,1,.616v2.648h1.817c.323,0,.507.37.507.724s-.184.723-.507.723H83.936v3.372Zm0,0" transform="translate(-59.2 -126.966)" fill="#29648a" stroke="#707070" stroke-width="1"/>
              <path id="Path_175" data-name="Path 175" d="M106.514,231.084c0,.6.215.817.862.817h.6a.839.839,0,1,1,0,1.679h-.6c-1.848,0-2.849-.755-2.849-2.5v-7.468c0-.37.524-.616.986-.616.509,0,1,.246,1,.616v2.648h1.817c.323,0,.507.37.507.724s-.184.723-.507.723h-1.817Zm0,0" transform="translate(-64.51 -126.966)" fill="#29648a" stroke="#707070" stroke-width="1"/>
              <path id="Path_176" data-name="Path 176" d="M129.082,235.134v.462a2.421,2.421,0,0,1,2.079-1.17,2.958,2.958,0,0,1,2.756,3.126v1.262a3.058,3.058,0,0,1-2.695,3.158,2.287,2.287,0,0,1-2.017-1.217v3.849c0,.323-.462.631-1.017.631s-.969-.308-.969-.631v-9.471c0-.37.415-.616.939-.616C128.7,234.518,129.082,234.765,129.082,235.134Zm2.849,2.418a1.445,1.445,0,0,0-1.4-1.386,1.347,1.347,0,0,0-1.324,1.386v1.54a1.5,1.5,0,0,0,1.354,1.14,1.468,1.468,0,0,0,1.371-1.417Zm0,0" transform="translate(-78.278 -133.39)" fill="#29648a" stroke="#707070" stroke-width="1"/>
              <path id="Path_177" data-name="Path 177" d="M161.654,239.8c0-1.354-3.65-.507-3.65-3.08,0-1.093.693-2.295,2.756-2.295,1.248,0,2.449.432,2.449,1,0,.278-.261.955-.723.955-.37,0-.847-.447-1.694-.447-.77,0-1.078.385-1.078.693,0,1.124,3.7.355,3.7,3.095,0,1.372-1.016,2.249-2.833,2.249-1.57,0-2.787-.647-2.787-1.325,0-.323.277-.877.661-.877.447,0,.786.693,2.08.693.908,0,1.123-.355,1.123-.663Zm0,0" transform="translate(-97.222 -134.361)" fill="#29648a" stroke="#707070" stroke-width="1"/>
              <path id="Path_178" data-name="Path 178" d="M187.328,238.747a1.065,1.065,0,0,1-1.031,1.046,1.047,1.047,0,1,1,1.031-1.046Zm0,4.5a1.065,1.065,0,0,1-1.031,1.048,1.047,1.047,0,1,1,1.031-1.048Zm0,0" transform="translate(-114.639 -136.513)" fill="#29648a" stroke="#707070" stroke-width="1"/>
              <path id="Path_179" data-name="Path 179" d="M206.379,219.033a.6.6,0,0,1-.062.277l-5.528,11.181a.67.67,0,0,1-.6.338.719.719,0,0,1-.74-.678.525.525,0,0,1,.077-.261l5.528-11.226a.6.6,0,0,1,.555-.323A.747.747,0,0,1,206.379,219.033Zm0,0" transform="translate(-122.685 -123.766)" fill="#29648a" stroke="#707070" stroke-width="1"/>
              <path id="Path_180" data-name="Path 180" d="M223.137,219.033a.61.61,0,0,1-.062.277l-5.529,11.181a.667.667,0,0,1-.6.338.719.719,0,0,1-.74-.678.514.514,0,0,1,.077-.261l5.528-11.226a.6.6,0,0,1,.555-.323A.747.747,0,0,1,223.137,219.033Zm0,0" transform="translate(-132.994 -123.766)" fill="#29648a" stroke="#707070" stroke-width="1"/>
              <path id="Path_181" data-name="Path 181" d="M252.359,241.687c-.108.262-.447.355-.785.355-.385,0-.724-.124-.816-.355l-1.186-3.357-1.17,3.342c-.092.246-.462.37-.847.37a.769.769,0,0,1-.77-.37l-2.372-6.082a.632.632,0,0,1-.077-.293c0-.477.77-.817,1.294-.817a.563.563,0,0,1,.569.323l1.54,4.373,1.155-3.8c.108-.354.37-.4.678-.4.293,0,.57.047.678.4l1.14,3.819,1.555-4.388a.572.572,0,0,1,.57-.323c.492,0,1.278.338,1.278.832a.565.565,0,0,1-.062.278Zm0,0" transform="translate(-149.594 -134.388)" fill="#29648a" stroke="#707070" stroke-width="1"/>
              <path id="Path_182" data-name="Path 182" d="M294.133,241.687c-.107.262-.446.355-.785.355-.385,0-.723-.124-.817-.355l-1.185-3.357-1.171,3.342c-.092.246-.461.37-.847.37a.77.77,0,0,1-.77-.37l-2.372-6.082a.633.633,0,0,1-.077-.293c0-.477.77-.817,1.294-.817a.566.566,0,0,1,.57.323l1.54,4.373,1.155-3.8c.107-.354.37-.4.678-.4.293,0,.569.047.677.4l1.14,3.819,1.556-4.388a.571.571,0,0,1,.569-.323c.493,0,1.279.338,1.279.832a.564.564,0,0,1-.062.278Zm0,0" transform="translate(-175.17 -134.388)" fill="#29648a" stroke="#707070" stroke-width="1"/>
              <path id="Path_183" data-name="Path 183" d="M335.91,241.687c-.107.262-.446.355-.785.355-.385,0-.723-.124-.817-.355l-1.185-3.357-1.171,3.342c-.092.246-.462.37-.847.37a.77.77,0,0,1-.77-.37l-2.372-6.082a.633.633,0,0,1-.077-.293c0-.477.77-.817,1.294-.817a.566.566,0,0,1,.57.323l1.54,4.373,1.155-3.8c.107-.354.369-.4.677-.4.293,0,.57.047.678.4l1.14,3.819L336.5,234.8a.57.57,0,0,1,.569-.323c.492,0,1.278.338,1.278.832a.564.564,0,0,1-.062.278Zm0,0" transform="translate(-200.748 -134.388)" fill="#29648a" stroke="#707070" stroke-width="1"/>
              <path id="Path_184" data-name="Path 184" d="M438.641,217.615l-2.248-.326-1.005-2.038a3.128,3.128,0,0,0-5.608,0l-1.005,2.038-2.248.326a3.127,3.127,0,0,0-1.733,5.334l1.627,1.585-.384,2.239a3.127,3.127,0,0,0,4.537,3.3l2.01-1.057,2.01,1.057a3.127,3.127,0,0,0,4.537-3.3l-.384-2.239,1.626-1.585a3.127,3.127,0,0,0-1.733-5.334Zm-3.2,4.317a3.13,3.13,0,0,0-.9,2.767l.12.7-.628-.33a3.125,3.125,0,0,0-2.91,0l-.628.33.119-.7a3.124,3.124,0,0,0-.9-2.767l-.508-.5.7-.1a3.129,3.129,0,0,0,2.355-1.71l.313-.636.314.636a3.125,3.125,0,0,0,2.354,1.71l.7.1Zm0,0" transform="translate(-253.938 -119.71)" fill="#29648a" stroke="#707070" stroke-width="1"/>
            </g>
          </g>
        </g>
      </g>
    </g>
  </g>
</svg>
