<svg id="Capa_1" enable-background="new 0 0 512 512" height="512" viewBox="0 0 512 512" width="512" xmlns="http://www.w3.org/2000/svg"><g><path d="m148.055 151.779c4.142 0 7.5-3.358 7.5-7.5v-20.742c0-4.143-3.358-7.5-7.5-7.5s-7.5 3.357-7.5 7.5v20.742c0 4.142 3.358 7.5 7.5 7.5z"/><path d="m371.445 144.279v-20.742c0-4.143-3.358-7.5-7.5-7.5s-7.5 3.357-7.5 7.5v20.742c0 4.142 3.358 7.5 7.5 7.5s7.5-3.358 7.5-7.5z"/><path d="m256 164.126c13.074 0 25.508-5.663 34.114-15.538 2.721-3.123 2.396-7.86-.727-10.582-3.123-2.721-7.86-2.396-10.582.727-5.756 6.604-14.068 10.393-22.805 10.393s-17.049-3.788-22.805-10.393c-2.722-3.123-7.459-3.448-10.582-.727-3.123 2.722-3.448 7.459-.727 10.582 8.606 9.875 21.04 15.538 34.114 15.538z"/><path d="m55.747 472.189h308.053c4.142 0 7.5-3.358 7.5-7.5s-3.358-7.5-7.5-7.5h-308.053c-21.46 0-39.099-16.675-40.638-37.749l166.861-166.86 33.39 28.173c23.431 19.763 57.6 19.977 81.282 0l33.389-28.172 166.86 166.86c-1.54 21.074-19.178 37.749-40.637 37.749h-62.454c-4.142 0-7.5 3.358-7.5 7.5s3.358 7.5 7.5 7.5h62.454c30.738 0 55.746-25.008 55.746-55.747v-320.886c0-30.739-25.008-55.747-55.746-55.747h-294.425c-4.142 0-7.5 3.358-7.5 7.5s3.358 7.5 7.5 7.5h294.425c21.333 0 38.89 16.48 40.608 37.378-223.84 188.843-209.941 177.197-211.599 178.473-17.767 13.677-42.768 13.358-60.232-1.375l-209.893-177.097c1.718-20.898 19.275-37.378 40.609-37.378h76.082c4.142 0 7.5-3.358 7.5-7.5s-3.358-7.5-7.5-7.5h-76.082c-30.739 0-55.747 25.008-55.747 55.746v320.885c0 30.739 25.008 55.747 55.747 55.747zm285.79-229.317 155.463-131.174v286.638zm-326.537-131.174 155.464 131.173-155.464 155.465z"/></g></svg>